<svg width="234" height="135" xmlns="http://www.w3.org/2000/svg" xmlns:xlink="http://www.w3.org/1999/xlink" overflow="hidden"><defs><clipPath id="clip0"><path d="M595 70 829 70 829 205 595 205Z" fill-rule="evenodd" clip-rule="evenodd"/></clipPath></defs><g clip-path="url(#clip0)" transform="translate(-595 -70)"><path d="M818.281 185.078C803.374 160.815 784.333 139.386 762.032 121.778L762.032 112.733C762.033 108.21 759.18 104.186 754.93 102.716L744.209 99.0104C740.461 97.7534 736.364 99.4644 734.603 103.023 733.572 102.412 732.599 101.84 732.062 101.533 719.93 94.7173 706.262 91.1518 692.368 91.1779L649.455 91.1779 599.974 70.2079C598.634 69.6407 597.092 70.2737 596.528 71.6216 595.964 72.9694 596.593 74.5218 597.932 75.0892L636.045 91.236C632.163 91.527 628.76 93.9572 627.205 97.5491L596.218 169.435C595.784 170.44 596.011 171.61 596.788 172.378L612.394 187.794C612.117 188.261 611.889 188.755 611.713 189.269L607.659 201.517C607.2 202.904 607.946 204.402 609.324 204.865 609.592 204.954 609.873 205 610.156 205L825.369 205C826.822 205 828 203.816 828 202.354 828.001 201.879 827.874 201.414 827.634 201.006L818.544 185.526ZM742.499 104.018 753.215 107.724C755.342 108.458 756.771 110.47 756.771 112.733L756.771 117.804C751.469 113.987 743.867 108.847 739.366 105.917L739.366 105.263C739.975 104.141 741.293 103.618 742.499 104.018ZM632.026 99.659C632.861 97.7228 634.759 96.4706 636.856 96.472L692.379 96.472C705.358 96.4581 718.126 99.7871 729.466 106.141 730.563 106.769 733.569 108.556 735.008 109.411L735.353 109.617C741.381 113.49 753.683 121.875 757.758 125.142L757.758 125.142 757.779 125.166C778.762 141.548 796.846 161.38 811.266 183.824L615.898 183.824 601.762 169.871ZM613.804 199.706 616.697 190.929C617.057 189.842 618.069 189.112 619.206 189.118L814.543 189.118 820.735 199.666C820.742 199.679 820.738 199.695 820.725 199.703 820.722 199.705 820.718 199.706 820.714 199.706Z" fill="#FF0000" fill-rule="evenodd"/><path d="M627.631 146.987 725.305 146.987C726.275 146.987 727.166 146.444 727.621 145.577L737.692 126.422C738.342 125.185 737.931 123.649 736.753 122.913L728.529 117.776C725.236 115.8 721.807 113.869 718.296 112.01 711.713 108.722 704.472 107.008 697.131 107L645.799 107C642.66 106.999 639.82 108.886 638.573 111.802L625.22 143.282C624.64 144.626 625.247 146.192 626.575 146.779 626.908 146.926 627.268 147.001 627.631 147ZM672.529 141.674 673.374 139.68C674.341 137.507 676.508 136.141 678.861 136.219L695.623 136.219C697.932 136.151 700.057 137.492 701.015 139.621L701.886 141.674ZM643.401 113.906C643.817 112.94 644.758 112.315 645.799 112.312L697.131 112.312C703.644 112.319 710.069 113.834 715.914 116.743 719.293 118.534 722.638 120.422 725.816 122.321L731.904 126.122 723.73 141.674 707.598 141.674 705.811 137.47C703.982 133.426 699.971 130.853 695.578 130.906L678.911 130.906C674.483 130.873 670.444 133.46 668.578 137.525L666.817 141.674 631.63 141.674Z" fill="#FF0000" fill-rule="evenodd"/></g></svg>