<svg width="136" height="135" xmlns="http://www.w3.org/2000/svg" xmlns:xlink="http://www.w3.org/1999/xlink" overflow="hidden"><defs><clipPath id="clip0"><path d="M749 159 885 159 885 294 749 294Z" fill-rule="evenodd" clip-rule="evenodd"/></clipPath></defs><g clip-path="url(#clip0)" transform="translate(-749 -159)"><path d="M787.915 217.809C789.529 217.788 791.141 217.918 792.731 218.2L795.265 218.714C797.004 219.066 798.595 219.949 799.825 221.243L805.313 227 807.528 224.879 802.018 219.097C800.357 217.353 798.21 216.163 795.864 215.685L793.33 215.171C791.55 214.848 789.744 214.697 787.936 214.72 783.195 214.688 777.906 212.335 772.526 206.886 764.598 198.659 755.828 185.928 753.317 182.204 752.906 181.591 752.983 180.769 753.501 180.245L753.721 180.023C754.316 179.42 755.281 179.42 755.877 180.023L779.748 204.195C780.473 204.93 781.649 204.93 782.375 204.195 783.1 203.461 783.1 202.27 782.375 201.535L758.503 177.366C757.908 176.763 757.908 175.786 758.503 175.183L759.848 173.819C760.443 173.217 761.408 173.217 762.004 173.819L785.872 197.991C786.597 198.725 787.773 198.725 788.499 197.991 789.224 197.256 789.224 196.065 788.499 195.33L764.63 171.161C764.035 170.558 764.035 169.581 764.63 168.978L765.975 167.615C766.57 167.012 767.535 167.012 768.131 167.615L791.999 191.786C792.693 192.55 793.867 192.601 794.623 191.899 795.378 191.196 795.428 190.006 794.734 189.242 794.699 189.203 794.662 189.166 794.624 189.13L770.753 164.956C770.158 164.353 770.158 163.376 770.753 162.773L770.982 162.54C771.268 162.25 771.656 162.087 772.061 162.088 772.362 162.087 772.657 162.178 772.907 162.348 781.536 168.152 789.647 174.708 797.147 181.942 802.552 187.415 804.872 192.795 804.884 197.612 804.852 199.481 804.976 201.349 805.255 203.197L805.848 206.655C806.152 208.423 807.007 210.046 808.287 211.286L814.843 217.639 817 215.456 810.399 209.055C809.587 208.271 809.047 207.242 808.858 206.122L808.266 202.662C808.016 200.987 807.907 199.293 807.94 197.598 807.924 191.625 804.941 185.454 799.311 179.753 791.666 172.381 783.4 165.699 774.609 159.783 772.794 158.553 770.374 158.793 768.831 160.357L768.603 160.587C767.692 161.509 767.207 162.778 767.269 164.081 767.198 164.081 767.126 164.081 767.053 164.081 765.839 164.077 764.675 164.566 763.819 165.438L762.475 166.801C761.613 167.667 761.131 168.846 761.135 170.076 761.135 170.147 761.135 170.219 761.135 170.292 761.064 170.292 760.993 170.292 760.921 170.292 759.707 170.288 758.543 170.777 757.688 171.649L756.343 173.012C755.432 173.933 754.948 175.201 755.011 176.503 754.939 176.503 754.867 176.503 754.794 176.503 753.58 176.499 752.416 176.988 751.56 177.86L751.342 178.079C749.786 179.652 749.556 182.124 750.794 183.964 753.335 187.71 762.243 200.643 770.344 209.046 775.975 214.748 782.042 217.769 787.915 217.809Z" fill="#FF0000" fill-rule="evenodd"/><path d="M839.975 237 837.933 239.317 874.842 275.066C877.562 277.682 877.671 282.034 875.085 284.785 872.499 287.537 868.198 287.647 865.478 285.031 865.401 284.957 865.327 284.882 865.253 284.805L825.412 243.033C824.761 242.862 824.091 242.667 823.38 242.412L822 243.917 863.048 286.954C866.831 290.917 873.073 291.027 876.99 287.2 880.907 283.373 881.015 277.059 877.233 273.096 877.144 273.003 877.054 272.913 876.962 272.824Z" fill="#FF0000" fill-rule="evenodd"/><path d="M882.447 168.977C881.091 167.144 878.965 166.044 876.689 166L876.536 166C874.135 166.003 871.834 166.968 870.147 168.682L814.051 224.936 759.058 277.078C755.136 280.797 754.964 287.001 758.673 290.934 760.518 292.89 763.085 293.999 765.771 294 768.489 293.995 771.084 292.858 772.935 290.861L822.416 237.422C824.684 238.57 827.155 239.258 829.689 239.446 831.232 239.521 832.732 238.925 833.806 237.812L867.999 199.319C876.923 189.273 882.219 181.31 883.741 175.649 884.35 173.344 883.873 170.886 882.447 168.977ZM880.781 174.848C879.785 178.557 876.295 185.358 865.709 197.275L831.554 235.726C831.051 236.195 830.374 236.429 829.689 236.372 827.183 236.372 823.373 234.489 821.682 233.697L770.688 288.776C768.157 291.488 763.913 291.629 761.208 289.091 758.503 286.553 758.363 282.297 760.893 279.584 760.981 279.491 761.071 279.4 761.164 279.311L816.177 227.139 872.304 170.854C873.417 169.719 874.936 169.078 876.523 169.072L876.628 169.072C879.132 169.193 881.065 171.327 880.944 173.838 880.928 174.18 880.873 174.519 880.781 174.848Z" fill="#FF0000" fill-rule="evenodd"/></g></svg>