<svg width="141" height="136" xmlns="http://www.w3.org/2000/svg" xmlns:xlink="http://www.w3.org/1999/xlink" overflow="hidden"><defs><clipPath id="clip0"><path d="M900 223 1041 223 1041 359 900 359Z" fill-rule="evenodd" clip-rule="evenodd"/></clipPath></defs><g clip-path="url(#clip0)" transform="translate(-900 -223)"><path d="M974 313.773 975.395 317.08 987.115 317.08 1013.14 292.658C1014.11 291.764 1015.39 291.282 1016.7 291.313 1018.02 291.349 1019.27 291.91 1020.18 292.87L1021.31 294.074 989.745 323.693 978.184 323.693 979.579 327 991.06 327 1026 294.216 1022.58 290.593C1021.75 289.694 1020.72 288.998 1019.57 288.556 1016.59 287.409 1013.2 288.067 1010.87 290.251L985.8 313.773Z" fill="#FF0000" fill-rule="evenodd"/><path d="M909.343 317.25 963.791 317.25 962.388 314 909.343 314C904.735 314 901 317.638 901 322.125L901 327 968 327 966.597 323.75 904.337 323.75 904.337 322.125C904.337 319.433 906.578 317.25 909.343 317.25Z" fill="#FF0000" fill-rule="evenodd"/><path d="M901 331 901 334.383 915.403 334.383 911.381 352 914.816 352 918.838 334.383 971 334.383 969.593 331 901 331Z" fill="#FF0000" fill-rule="evenodd"/><path d="M1040 331.127 1035.59 331.127 1014.87 314.661 1024.52 305.445 1022.24 303 992.799 331.127 981 331.127 982.398 334.49 1022.28 334.49 1026.28 352 1029.69 352 1025.69 334.49 1040 334.49ZM997.64 331.127 1012.43 316.996 1030.17 331.097C1030.19 331.113 1030.19 331.127 1030.16 331.127Z" fill="#FF0000" fill-rule="evenodd"/><path d="M951.239 225.503C945.329 225.755 939.505 227.005 934.015 229.2L932.255 225.028C931.895 224.174 930.909 223.772 930.053 224.132 929.197 224.491 928.795 225.475 929.155 226.329L930.913 230.497C925.435 232.882 920.406 236.186 916.046 240.265 901.83 253.798 896.085 274.187 902.794 292.762 904.831 289.77 907.766 287.498 911.178 286.275 913.648 285.176 916.307 284.564 919.009 284.472 919.959 284.454 920.906 284.593 921.81 284.886 922.908 282.544 926.145 280.097 930.243 278.28 932.713 277.18 935.372 276.568 938.074 276.477 939.024 276.458 939.971 276.598 940.875 276.89 941.661 275.492 942.743 274.281 944.046 273.343 945.11 272.522 946.278 271.846 947.521 271.331L948.033 271.116 984.656 358 988.306 358 951.134 269.816 951.451 269.681C953.026 269.011 954.701 268.604 956.408 268.476 956.76 268.452 957.101 268.44 957.429 268.44 958.294 268.421 959.158 268.534 959.99 268.774 961.087 266.432 964.324 263.985 968.423 262.168 970.892 261.069 973.552 260.457 976.254 260.366 977.205 260.347 978.151 260.487 979.056 260.779 980.153 258.438 983.391 255.991 987.489 254.173 989.998 253.086 992.694 252.491 995.429 252.422 996.297 252.407 997.162 252.512 998 252.735 989.747 235.547 972.016 225.474 953.059 225.472ZM953.059 228.828C968.772 228.546 983.545 236.276 992.244 249.332 990.14 249.68 988.085 250.276 986.121 251.107 983.429 252.261 980.938 253.836 978.743 255.773 971.776 242.094 960.552 232.077 948.953 229.044 948.903 229.031 948.904 229.016 948.956 229.012 949.757 228.94 950.557 228.884 951.352 228.857ZM975.628 257.049C972.671 257.218 969.768 257.914 967.057 259.103 964.39 260.248 961.921 261.805 959.74 263.716 952.87 248.458 945.069 236.34 939.072 231.694 940.959 231.401 942.878 231.374 944.773 231.612 956.512 233.112 968.397 242.991 975.628 257.049ZM909.875 283.182C907.937 283.985 906.101 285.013 904.403 286.242 901.134 270.29 906.425 253.791 918.368 242.691 919.017 242.074 919.726 241.5 920.422 240.919 920.461 240.887 920.473 240.896 920.447 240.94 914.456 251.355 913.77 266.479 918.727 281.135 915.674 281.258 912.671 281.952 909.875 283.182ZM928.877 275.214C926.297 276.326 923.898 277.819 921.763 279.642 916.793 264.617 918.045 249.233 925.166 239.835 926.311 238.328 927.661 236.986 929.178 235.85 928.314 243.391 931.559 257.494 937.713 273.144 934.664 273.281 931.668 273.983 928.877 275.214ZM941.726 270.897C941.382 271.172 941.077 271.452 940.77 271.733 934.893 256.725 931.68 242.921 932.532 236.078 932.731 234.483 933.192 233.457 933.918 233.153 934.556 232.888 935.615 233.273 936.898 234.248 942.41 238.436 950.057 250.409 956.679 265.108 956.571 265.113 956.469 265.112 956.359 265.118 954.139 265.274 951.962 265.804 949.919 266.686L946.463 268.135C944.763 268.831 943.168 269.761 941.725 270.897Z" fill="#FF0000" fill-rule="evenodd"/></g></svg>