<svg width="92" height="136" xmlns="http://www.w3.org/2000/svg" xmlns:xlink="http://www.w3.org/1999/xlink" overflow="hidden"><defs><clipPath id="clip0"><path d="M862 100 954 100 954 236 862 236Z" fill-rule="evenodd" clip-rule="evenodd"/></clipPath><clipPath id="clip1"><path d="M863 101 953 101 953 235 863 235Z" fill-rule="evenodd" clip-rule="evenodd"/></clipPath><clipPath id="clip2"><path d="M863 101 953 101 953 235 863 235Z" fill-rule="evenodd" clip-rule="evenodd"/></clipPath><clipPath id="clip3"><path d="M863 101 997 101 997 235 863 235Z" fill-rule="evenodd" clip-rule="evenodd"/></clipPath></defs><g clip-path="url(#clip0)" transform="translate(-862 -100)"><g clip-path="url(#clip1)"><g clip-path="url(#clip2)"><g clip-path="url(#clip3)"><path d="M12.5074 34.7512 9.72799 34.7512 9.72799 82.0181 76.4342 82.0181 76.4342 34.7512 12.5074 34.7512ZM73.6548 79.2386 12.5074 79.2386 12.5074 37.5306 73.6548 37.5306Z" fill="#FF0000" transform="matrix(1 0 -0 1.0044 863 101)"/><path d="M77.8239 27.7942 8.33827 27.7942C5.27201 27.8034 2.78858 30.2868 2.77942 33.3531L2.77942 83.4092C2.78935 86.4751 5.27232 88.9581 8.33827 88.968L36.1325 88.968 36.1325 100.086 22.2354 100.086 22.2354 102.865 63.9268 102.865 63.9268 100.086 50.0296 100.086 50.0296 88.968 77.8239 88.968C80.8899 88.9581 83.3729 86.4751 83.3827 83.4092L83.3827 33.36C83.3775 30.291 80.8929 27.8034 77.8239 27.7942ZM47.2502 100.091 38.9119 100.091 38.9119 88.9736 47.2502 88.9736ZM80.6033 83.4147C80.6033 84.9498 79.359 86.1941 77.8239 86.1941L8.33827 86.1941C6.80324 86.1941 5.55885 84.9498 5.55885 83.4147L5.55885 33.36C5.55885 31.825 6.80324 30.5806 8.33827 30.5806L77.8239 30.5806C79.359 30.5806 80.6033 31.825 80.6033 33.36Z" fill="#FF0000" transform="matrix(1 0 -0 1.0044 863 101)"/><path d="M125.074 27.7942 97.2799 27.7942C94.2099 27.7942 91.721 30.2831 91.721 33.3531L91.721 97.2799C91.721 100.35 94.2099 102.839 97.2799 102.839L125.074 102.839C128.144 102.839 130.633 100.35 130.633 97.2799L130.633 33.3531C130.633 30.2831 128.144 27.7942 125.074 27.7942ZM127.854 97.2799C127.854 98.8149 126.609 100.059 125.074 100.059L97.2799 100.059C95.7448 100.059 94.5005 98.8149 94.5005 97.2799L94.5005 33.3531C94.5005 31.818 95.7448 30.5737 97.2799 30.5737L125.074 30.5737C126.609 30.5737 127.854 31.818 127.854 33.3531Z" fill="#FF0000" transform="matrix(1 0 -0 1.0044 863 101)"/><path d="M100.059 38.9119 122.295 38.9119 122.295 41.6914 100.059 41.6914Z" fill="#FF0000" transform="matrix(1 0 -0 1.0044 863 101)"/><path d="M100.059 47.2502 122.295 47.2502 122.295 50.0296 100.059 50.0296Z" fill="#FF0000" transform="matrix(1 0 -0 1.0044 863 101)"/><path d="M113.262 89.6365C113.262 90.7877 112.328 91.721 111.177 91.721 110.026 91.721 109.092 90.7877 109.092 89.6365 109.092 88.4852 110.026 87.5519 111.177 87.5519 112.328 87.5519 113.262 88.4852 113.262 89.6365Z" fill="#FF0000" transform="matrix(1 0 -0 1.0044 863 101)"/></g></g></g></g></svg>