<svg width="214" height="136" xmlns="http://www.w3.org/2000/svg" xmlns:xlink="http://www.w3.org/1999/xlink" overflow="hidden"><defs><clipPath id="clip0"><path d="M608 339 822 339 822 475 608 475Z" fill-rule="evenodd" clip-rule="evenodd"/></clipPath></defs><g clip-path="url(#clip0)" transform="translate(-608 -339)"><path d="M612.711 389C669.239 332.616 760.761 332.616 817.289 389L822 384.301C762.78 325.233 666.884 325.233 608 384.301L612.711 389Z" fill="#FF0000" fill-rule="evenodd"/><path d="M793 412.323C749.632 369.226 679.368 369.226 636 412.323L640.707 417C681.386 376.576 747.279 376.576 787.957 417L793 412.323Z" fill="#FF0000" fill-rule="evenodd"/><path d="M669.714 446C694.63 421.497 735.371 421.497 760.287 446L765 441.365C737.391 414.212 692.609 414.212 665 441.365L669.714 446Z" fill="#FF0000" fill-rule="evenodd"/><path d="M698.63 474C707.559 465.28 722.441 465.28 731.37 474L736 469.478C724.425 458.174 705.575 458.174 694 469.478L698.63 474Z" fill="#FF0000" fill-rule="evenodd"/></g></svg>